<svg width="80" height="24" viewBox="0 0 80 24" fill="none" xmlns="http://www.w3.org/2000/svg">
<path d="M30.201 17.7347C33.2523 17.7347 34.6066 16.3959 34.6066 14.45C34.6066 12.4573 33.2056 11.57 31.1818 11.1496L29.7029 10.8383C28.6443 10.6048 28.3018 10.2 28.3018 9.63958C28.3018 8.97017 28.8778 8.47201 30.1855 8.47201C31.5865 8.47201 32.1937 9.17255 32.2559 10.0132H34.4198C34.4043 7.97385 32.6607 6.5572 30.2166 6.5572C27.6946 6.5572 26.1068 7.8026 26.1068 9.63958C26.1068 11.6167 27.4456 12.4106 29.3292 12.8154L30.9171 13.1578C31.9446 13.3758 32.4116 13.765 32.4116 14.4967C32.4116 15.3217 31.7578 15.8355 30.201 15.8355C28.8622 15.8355 28.006 15.2283 27.9126 13.9985H25.7487C25.8577 16.2558 27.3677 17.7347 30.201 17.7347ZM36.083 17.5946H38.1691V13.1267C38.1691 11.9591 38.9007 11.2586 39.8815 11.2586C40.9245 11.2586 41.3916 11.8657 41.3916 12.8776V17.5946H43.4776V12.2861C43.4776 10.4802 42.31 9.35936 40.5198 9.35936C39.4145 9.35936 38.6828 9.81082 38.2313 10.418H38.1691V6.0746H36.083V17.5946ZM50.2945 9.49947V14.123C50.2945 15.1505 49.8586 15.7888 48.8 15.7888C47.7259 15.7888 47.29 15.1505 47.29 14.123V9.49947H45.2039V14.45C45.2039 16.1935 46.3248 17.7347 48.7844 17.7347H48.8C51.2441 17.7347 52.3806 16.1935 52.3806 14.45V9.49947H50.2945ZM55.0753 17.5946H57.1614V11.2586H59.0918V9.49947H57.1614V8.81449C57.1614 8.03612 57.6128 7.7092 58.3912 7.7092C58.6403 7.7092 58.9205 7.74033 59.1696 7.78703V6.0279C58.8894 5.96563 58.578 5.91893 58.1733 5.91893C56.4141 5.91893 55.0753 6.99309 55.0753 8.81449V9.49947H53.6587V11.2586H55.0753V17.5946ZM61.4909 17.5946H63.5769V11.2586H65.5073V9.49947H63.5769V8.81449C63.5769 8.03612 64.0284 7.7092 64.8068 7.7092C65.0558 7.7092 65.3361 7.74033 65.5851 7.78703V6.0279C65.3049 5.96563 64.9936 5.91893 64.5888 5.91893C62.8297 5.91893 61.4909 6.99309 61.4909 8.81449V9.49947H60.0742V11.2586H61.4909V17.5946ZM67.0813 17.5946H69.1674V6.0746H67.0813V17.5946ZM74.3836 17.7347C76.4697 17.7347 77.7929 16.536 78.0109 15.0727H75.9715C75.8158 15.5708 75.3177 16.0067 74.3836 16.0067C73.1849 16.0067 72.6245 15.2283 72.6089 14.123H78.1198V13.3135C78.1198 11.1029 76.7655 9.35936 74.3525 9.35936C71.7527 9.35936 70.4762 11.2586 70.4762 13.5626C70.4762 15.8977 71.8772 17.7347 74.3836 17.7347ZM72.6245 12.7375C72.6712 11.819 73.1849 11.1029 74.3525 11.1029C75.4422 11.1029 75.9559 11.819 75.9871 12.7375H72.6245Z" fill="white"/>
<path d="M8.5939 10.89L2.34146 14.4995V6.3139L8.5939 2.70366L17.1878 7.66537V4.96171L8.5939 0L0 4.96171V18.5554L8.5939 13.5937L12.5056 15.8524V13.1488L8.5939 10.89Z" fill="#3758F9"/>
<path d="M8.5939 5.44458L4.67707 7.70629V10.4099L8.5939 8.14824L14.8463 11.7585V19.9448L8.5939 16.3346L4.67707 18.5956L2.70293 19.7341L0.00146341 21.2941L0 24L8.5939 19.0382L17.1878 24V10.4063L8.5939 5.44458Z" fill="#3758F9"/>
</svg>
